<svg width="420" height="594" viewBox="0 0 420 594" fill="none" xmlns="http://www.w3.org/2000/svg">
<g clip-path="url(#clip0_113_32)">
<rect width="420" height="594" rx="24" fill="white"/>
<rect width="120" height="594" fill="#A8FAD8"/>
<rect x="136" y="40" width="193" height="16" rx="4" fill="#75F0BD"/>
<rect x="136" y="180" width="207" height="12" rx="4" fill="#75F0BD"/>
<rect x="136" y="304" width="207" height="12" rx="4" fill="#75F0BD"/>
<rect x="136" y="428" width="130" height="12" rx="4" fill="#75F0BD"/>
<rect x="136" y="240" width="12" height="12" rx="4" fill="#75F0BD"/>
<rect x="12" y="292" width="12" height="12" rx="4" fill="#52E0A5"/>
<rect x="136" y="364" width="12" height="12" rx="4" fill="#75F0BD"/>
<rect x="136" y="260" width="12" height="12" rx="4" fill="#75F0BD"/>
<rect x="12" y="312" width="12" height="12" rx="4" fill="#52E0A5"/>
<rect x="136" y="384" width="12" height="12" rx="4" fill="#75F0BD"/>
<rect x="136" y="280" width="12" height="12" rx="4" fill="#75F0BD"/>
<rect x="12" y="332" width="12" height="12" rx="4" fill="#52E0A5"/>
<rect x="12" y="352" width="12" height="12" rx="4" fill="#52E0A5"/>
<rect x="136" y="404" width="12" height="12" rx="4" fill="#75F0BD"/>
<rect x="12" y="136" width="96" height="12" rx="4" fill="#52E0A5"/>
<rect x="12" y="180" width="96" height="12" rx="4" fill="#52E0A5"/>
<rect x="12" y="272" width="96" height="12" rx="4" fill="#52E0A5"/>
<rect x="136" y="136" width="94" height="12" rx="4" fill="#75F0BD"/>
<rect x="266" y="136" width="94" height="12" rx="4" fill="#75F0BD"/>
<rect x="136" y="64" width="213" height="12" rx="4" fill="#E0EBE6"/>
<rect x="136" y="200" width="271" height="12" rx="4" fill="#E0EBE6"/>
<rect x="136" y="324" width="271" height="12" rx="4" fill="#E0EBE6"/>
<rect x="136" y="448" width="124" height="12" rx="4" fill="#E0EBE6"/>
<rect x="136" y="84" width="182" height="12" rx="4" fill="#E0EBE6"/>
<rect x="136" y="220" width="232" height="12" rx="4" fill="#E0EBE6"/>
<rect x="136" y="344" width="232" height="12" rx="4" fill="#E0EBE6"/>
<rect x="136" y="468" width="64" height="12" rx="4" fill="#E0EBE6"/>
<rect x="208" y="468" width="64" height="12" rx="4" fill="#E0EBE6"/>
<rect x="156" y="240" width="107" height="12" rx="4" fill="#E0EBE6"/>
<rect x="12" y="200" width="56" height="12" rx="4" fill="#A6BFB5"/>
<rect x="32" y="292" width="56" height="12" rx="4" fill="#A6BFB5"/>
<rect x="156" y="364" width="211" height="12" rx="4" fill="#E0EBE6"/>
<rect x="136" y="488" width="90" height="12" rx="4" fill="#E0EBE6"/>
<rect x="234" y="488" width="56" height="12" rx="4" fill="#E0EBE6"/>
<rect x="156" y="260" width="130" height="12" rx="4" fill="#E0EBE6"/>
<rect x="12" y="220" width="68" height="12" rx="4" fill="#A6BFB5"/>
<rect x="32" y="312" width="68" height="12" rx="4" fill="#A6BFB5"/>
<rect x="156" y="384" width="150" height="12" rx="4" fill="#E0EBE6"/>
<rect x="136" y="516" width="40" height="12" rx="4" fill="#E0EBE6"/>
<rect x="184" y="516" width="40" height="12" rx="4" fill="#E0EBE6"/>
<rect x="232" y="516" width="45" height="12" rx="4" fill="#E0EBE6"/>
<rect x="156" y="280" width="104" height="12" rx="4" fill="#E0EBE6"/>
<rect x="12" y="240" width="54" height="12" rx="4" fill="#A6BFB5"/>
<rect x="32" y="332" width="54" height="12" rx="4" fill="#A6BFB5"/>
<rect x="32" y="352" width="40" height="12" rx="4" fill="#A6BFB5"/>
<rect x="156" y="404" width="167" height="12" rx="4" fill="#E0EBE6"/>
<rect x="136" y="536" width="84" height="12" rx="4" fill="#E0EBE6"/>
<rect x="228" y="536" width="64" height="12" rx="4" fill="#E0EBE6"/>
<rect x="136" y="556" width="167" height="12" rx="4" fill="#E0EBE6"/>
<rect x="136" y="104" width="190" height="12" rx="4" fill="#E0EBE6"/>
<line y1="163.5" x2="420" y2="163.5" stroke="#F0F5F3"/>
<circle cx="60" cy="76" r="40" fill="#33CC8C"/>
</g>
<defs>
<clipPath id="clip0_113_32">
<rect width="420" height="594" rx="24" fill="white"/>
</clipPath>
</defs>
</svg>
