<svg width="420" height="594" viewBox="0 0 420 594" fill="none" xmlns="http://www.w3.org/2000/svg">
<rect width="420" height="594" rx="24" fill="white"/>
<rect x="24" y="36" width="284" height="16" rx="4" fill="#8075F0"/>
<rect x="24" y="180" width="139" height="12" rx="4" fill="#8075F0"/>
<rect x="215" y="180" width="139" height="12" rx="4" fill="#8075F0"/>
<rect x="24" y="304" width="94" height="12" rx="4" fill="#8075F0"/>
<rect x="215" y="304" width="94" height="12" rx="4" fill="#8075F0"/>
<rect x="24" y="428" width="153" height="12" rx="4" fill="#8075F0"/>
<rect x="215" y="428" width="153" height="12" rx="4" fill="#8075F0"/>
<rect x="24" y="240" width="12" height="12" rx="4" fill="#8075F0"/>
<rect x="215" y="240" width="12" height="12" rx="4" fill="#8075F0"/>
<rect x="24" y="364" width="12" height="12" rx="4" fill="#8075F0"/>
<rect x="215" y="364" width="12" height="12" rx="4" fill="#8075F0"/>
<rect x="24" y="260" width="12" height="12" rx="4" fill="#8075F0"/>
<rect x="215" y="260" width="12" height="12" rx="4" fill="#8075F0"/>
<rect x="24" y="384" width="12" height="12" rx="4" fill="#8075F0"/>
<rect x="215" y="384" width="12" height="12" rx="4" fill="#8075F0"/>
<rect x="24" y="280" width="12" height="12" rx="4" fill="#8075F0"/>
<rect x="215" y="280" width="12" height="12" rx="4" fill="#8075F0"/>
<rect x="24" y="404" width="12" height="12" rx="4" fill="#8075F0"/>
<rect x="215" y="404" width="12" height="12" rx="4" fill="#8075F0"/>
<rect x="24" y="136" width="94" height="12" rx="4" fill="#8075F0"/>
<rect x="154" y="136" width="94" height="12" rx="4" fill="#8075F0"/>
<rect x="284" y="136" width="94" height="12" rx="4" fill="#8075F0"/>
<rect x="24" y="60" width="314" height="12" rx="4" fill="#E0EBE6"/>
<rect x="24" y="200" width="150" height="12" rx="4" fill="#E0EBE6"/>
<rect x="215" y="200" width="170" height="12" rx="4" fill="#E0EBE6"/>
<rect x="24" y="324" width="145" height="12" rx="4" fill="#E0EBE6"/>
<rect x="215" y="324" width="145" height="12" rx="4" fill="#E0EBE6"/>
<rect x="24" y="448" width="124" height="12" rx="4" fill="#E0EBE6"/>
<rect x="215" y="448" width="124" height="12" rx="4" fill="#E0EBE6"/>
<rect x="24" y="80" width="268" height="12" rx="4" fill="#E0EBE6"/>
<rect x="24" y="220" width="145" height="12" rx="4" fill="#E0EBE6"/>
<rect x="215" y="220" width="145" height="12" rx="4" fill="#E0EBE6"/>
<rect x="24" y="344" width="139" height="12" rx="4" fill="#E0EBE6"/>
<rect x="215" y="344" width="139" height="12" rx="4" fill="#E0EBE6"/>
<rect x="24" y="468" width="159" height="12" rx="4" fill="#E0EBE6"/>
<rect x="215" y="468" width="64" height="12" rx="4" fill="#E0EBE6"/>
<rect x="287" y="468" width="64" height="12" rx="4" fill="#E0EBE6"/>
<rect x="44" y="240" width="107" height="12" rx="4" fill="#E0EBE6"/>
<rect x="235" y="240" width="107" height="12" rx="4" fill="#E0EBE6"/>
<rect x="44" y="364" width="147" height="12" rx="4" fill="#E0EBE6"/>
<rect x="235" y="364" width="147" height="12" rx="4" fill="#E0EBE6"/>
<rect x="24" y="488" width="139" height="12" rx="4" fill="#E0EBE6"/>
<rect x="215" y="488" width="90" height="12" rx="4" fill="#E0EBE6"/>
<rect x="313" y="488" width="56" height="12" rx="4" fill="#E0EBE6"/>
<rect x="44" y="260" width="130" height="12" rx="4" fill="#E0EBE6"/>
<rect x="235" y="260" width="130" height="12" rx="4" fill="#E0EBE6"/>
<rect x="44" y="384" width="150" height="12" rx="4" fill="#E0EBE6"/>
<rect x="235" y="384" width="150" height="12" rx="4" fill="#E0EBE6"/>
<rect x="24" y="516" width="150" height="12" rx="4" fill="#E0EBE6"/>
<rect x="215" y="516" width="40" height="12" rx="4" fill="#E0EBE6"/>
<rect x="263" y="516" width="40" height="12" rx="4" fill="#E0EBE6"/>
<rect x="311" y="516" width="45" height="12" rx="4" fill="#E0EBE6"/>
<rect x="44" y="280" width="104" height="12" rx="4" fill="#E0EBE6"/>
<rect x="235" y="280" width="104" height="12" rx="4" fill="#E0EBE6"/>
<rect x="44" y="404" width="101" height="12" rx="4" fill="#E0EBE6"/>
<rect x="235" y="404" width="101" height="12" rx="4" fill="#E0EBE6"/>
<rect x="24" y="536" width="167" height="12" rx="4" fill="#E0EBE6"/>
<rect x="215" y="536" width="84" height="12" rx="4" fill="#E0EBE6"/>
<rect x="307" y="536" width="64" height="12" rx="4" fill="#E0EBE6"/>
<rect x="24" y="556" width="167" height="12" rx="4" fill="#E0EBE6"/>
<rect x="215" y="556" width="167" height="12" rx="4" fill="#E0EBE6"/>
<rect x="24" y="100" width="280" height="12" rx="4" fill="#E0EBE6"/>
<line y1="163.5" x2="420" y2="163.5" stroke="#F0F5F3"/>
</svg>
