<svg width="2560" height="1920" viewBox="0 0 2560 1920" fill="none" xmlns="http://www.w3.org/2000/svg" style="opacity:.5;--color-background-image-base:#33CC8C;--color-background-image-accent-1:#fff;--color-background-image-accent-2:var(--violet-6);--color-background-image-accent-3:var(--purple-9);--color-background-image-accent-4:var(--blue-5);--color-background-image-accent-5:#33CC8C;--color-background-image-accent-6:#33CC8C;--color-background-image-accent-7:#33CC8C">
  <path d="M3020.93 134.455c103.86 39.369 144.04 132.323 89.73 207.619C2627.55 1011.9 1866.31 2517.63 1361.75 2752.01c-2043.139 677.2-5518.54-180.54-3500.05-1326.63C-119.809 279.282-1553.39-218.348-406.211-990.94 930.008-1890.85 2560.5-40.065 3020.93 134.455" fill="url(#a)"/>
  <path d="m885.9-99.215 978.84 371.012c56.4 21.381 96.6 59.987 109.49 105.174l160.97 564.182 730.98-226.103c58.54-18.109 125.21-16.212 181.62 5.168l978.84 371.012c103.86 39.37 144.04 132.32 89.73 207.62l-260.6 361.31c-22.7 31.47-59.72 56.28-104.78 70.22l-1277.83 395.25 281.13 985.31c10.09 35.35 2.7 72.15-20.86 103.96l-365.97 493.89-1158.49-439.11c-56.41-21.38-96.6-59.98-109.49-105.17-282.656-990.64-380.853-1084.35-808.799-2584.216-39.87-139.736 25.517-221.674 48.217-253.146L599.499-34.164c54.308-75.296 182.534-104.42 286.401-65.05" fill="url(#b)"/>
  <path d="m1597.13 169.785 978.84 371.012c56.41 21.38 96.6 59.986 109.49 105.173l160.98 564.18 730.97-226.1c58.55-18.11 125.22-16.212 181.62 5.168l978.84 371.012c103.87 39.37 144.04 132.32 89.73 207.62L4567 1929.16c-22.7 31.47-59.72 56.28-104.78 70.22L3184.4 2394.63l281.13 985.31c10.08 35.35 2.7 72.15-20.87 103.96l-365.97 493.89-1158.49-439.11c-56.41-21.38-96.6-59.98-109.49-105.17l-160.97-564.18-730.981 226.1c-58.546 18.11-125.214 16.21-181.621-5.17 0 0-1015.995-383.5-807.825-938.8 208.169-555.29 796.002-285.21 1382.467-466.61l-281.4-986.256c-9.93-34.778-2.95-70.974 19.75-102.446l260.6-361.312c54.31-75.296 182.54-104.42 286.4-65.051" fill="#D0CCFF"/>
  <path d="m646.599 3987.93-744.97-2834.12L4970.66-538.566 8169.17 3987.93z" fill="url(#d)"/>
  <path d="M793.654 3742.84 48.684 908.72 5117.71-783.656 8316.22 3742.84z" fill="url(#e)"/>
  <ellipse cx="2396.98" cy="275.232" rx="1699.15" ry="1558.77" fill="url(#f)"/>
  <path opacity=".5" d="M6290.25 3071.54 3745.51 4524.66 283.022-523.642 4343.26-4194.7z" fill="url(#g)"/>
  <path d="M3059.26 767.931C3338.11 1712.5 3585.77 2551.43 3864.61 3496c26.64 90.22-27.19 210.98-120.23 269.74C2803.8 4359.68-787.932 5319.23 63.307 2765.51c113.443-340.33 250.387-578.39 530.973-590.26 280.585-11.86 685.48 170.2 1052.43 138.07 529.19-46.33 397.43-1098.19 749.4-1320.445l446.46-281.923c93.04-58.751 190.05-33.241 216.69 56.979" fill="url(#h)"/>
  <defs>
   

    
    <radialGradient id="a" cx="0" cy="0" r="1" gradientUnits="userSpaceOnUse" gradientTransform="matrix(2726.43627 5830.93823 -5711.30964 2670.5002 -804.109 -2036.8)">
      <stop stop-color="var(--color-background-image-base)"/>
      <stop offset=".083" stop-color="var(--color-background-image-accent-1)"/>
      <stop offset=".365" stop-color="#fff"/>
      <stop offset=".658" stop-color="#33CC8C"/>
      <stop offset=".799" stop-color="#33CC8C"/>
      <stop offset=".943" stop-color="var(--color-background-image-base)"/>
      <stop offset="1" stop-color="var(--color-background-image-base)"/>
    </radialGradient>
    <radialGradient id="b" cx="0" cy="0" r="1" gradientUnits="userSpaceOnUse" gradientTransform="matrix(2726.43627 5830.93823 -5711.30964 2670.5002 201.6 -1080.02)">
      <stop stop-color="var(--color-background-image-base)"/>
      <stop offset=".083" stop-color="#FFF"/>
      <stop offset=".334" stop-color="var(--color-background-image-accent-5)"/>
      <stop offset=".658" stop-color="var(--color-background-image-base)"/>
      <stop offset=".799" stop-color="#FFF"/>
      <stop offset=".943" stop-color="var(--color-background-image-base)"/>
      <stop offset="1" stop-color="var(--color-background-image-base)"/>
    </radialGradient>
   
   
  </defs>
</svg>
