<svg data-v-423bf9ae="" xmlns="http://www.w3.org/2000/svg" viewBox="0 0 NaN 90" class="iconLeft"><!----><!----><!----><g data-v-423bf9ae="" id="e7c9b7aa-076c-4dc6-8e0d-6b990583c68f" fill="#000000" transform="matrix(Infinity,0,0,Infinity,0,0)"><path d=""></path></g><defs data-v-423bf9ae=""><linearGradient data-v-423bf9ae="" gradientTransform="rotate(25)" id="8218ea82-29a6-46ee-8f82-24144a4e4fbd" x1="0%" y1="0%" x2="100%" y2="0%"><stop data-v-423bf9ae="" offset="0%" style="stop-color: rgb(65, 226, 150); stop-opacity: 1;"></stop><stop data-v-423bf9ae="" offset="100%" style="stop-color: rgb(0, 196, 238); stop-opacity: 1;"></stop></linearGradient></defs><g data-v-423bf9ae="" id="bc51f3cb-92bc-4052-8e58-1d9191783d5d" transform="matrix(2.8125,0,0,2.8125,-0.5001555681228638,0)" stroke="none" fill="url(#8218ea82-29a6-46ee-8f82-24144a4e4fbd)"><path d="M13.408 0c-.771 0-1.402.631-1.402 1.402v16.837c0 .771.631 1.402 1.402 1.402h11.6c.771 0 1.402-.631 1.402-1.402V1.402C26.41.631 25.779 0 25.008 0h-11.6zM25.41 1.402v16.837a.407.407 0 01-.402.402h-11.6a.407.407 0 01-.402-.402V1.402c0-.218.184-.402.402-.402h11.6c.218 0 .402.184.402.402z"></path><path d="M15.565 3.809l-.911-.635-.572.821 1.73 1.205 1.839-2.628-.818-.574zM18.556 2.894h5.365v1h-5.365zM18.556 7.178h5.365v1h-5.365zM18.556 11.463h5.365v1h-5.365zM18.556 15.747h5.365v1h-5.365z"></path><circle cx="15.702" cy="11.963" r=".987"></circle><circle cx="15.702" cy="7.678" r=".987"></circle><circle cx="15.702" cy="16.247" r=".987"></circle><path d="M27.982 26.177c-1.28.636-4.285 1.657-7.166 1.657-1.86 0-3.668-.426-4.926-1.657 0 0 3.298.286 5.578.286 1.14 0 2.026-.071 2.117-.286.275-.644-.824-1.69-6.596-2.896a25.112 25.112 0 00-5.13-.536c-2.932 0-4.764.536-4.764.536v7.724S9.482 29.8 11.366 29.8c.451 0 .872.069 1.226.24 1.68.811 6.053 1.96 9.099 1.96.277 0 .543-.009.795-.03 3.023-.241 7.878-4.103 8.794-5.391.513-.721.078-1.089-.775-1.089-.67.001-1.596.227-2.523.687zm-5.576 4.797a9.081 9.081 0 01-.715.026c-2.892 0-7.13-1.12-8.664-1.861-.466-.225-1.025-.339-1.661-.339-1.113 0-2.344.354-3.271.695v-5.416a20.233 20.233 0 013.764-.335 24.1 24.1 0 014.925.515c2.216.464 3.606.876 4.475 1.203-2.199-.016-5.252-.279-5.284-.282l-2.78-.241 1.995 1.952c1.317 1.289 3.21 1.943 5.626 1.943 3.213 0 6.383-1.152 7.611-1.762a5.917 5.917 0 011.555-.53c-1.469 1.458-5.277 4.248-7.576 4.432zM.5 31.97h4.397v-8.689H.5v8.689zm1-7.689h2.397v6.689H1.5v-6.689z"></path></g><!----></svg>